<svg width="32" height="32" viewBox="0 0 32 32" fill="none" xmlns="http://www.w3.org/2000/svg">
<path d="M25.333 12H11.9997C11.2924 12 10.6142 12.281 10.1141 12.781C9.61396 13.2811 9.33301 13.9594 9.33301 14.6667V22.6667C9.33301 23.3739 9.61396 24.0522 10.1141 24.5523C10.6142 25.0524 11.2924 25.3333 11.9997 25.3333H25.333C26.0403 25.3333 26.7185 25.0524 27.2186 24.5523C27.7187 24.0522 27.9997 23.3739 27.9997 22.6667V14.6667C27.9997 13.9594 27.7187 13.2811 27.2186 12.781C26.7185 12.281 26.0403 12 25.333 12Z" stroke="#F3D697" stroke-width="2" stroke-linecap="round" stroke-linejoin="round"/>
<path d="M18.6667 21.3333C19.3739 21.3333 20.0522 21.0524 20.5523 20.5523C21.0524 20.0522 21.3333 19.3739 21.3333 18.6667C21.3333 17.9594 21.0524 17.2811 20.5523 16.781C20.0522 16.281 19.3739 16 18.6667 16C17.9594 16 17.2811 16.281 16.781 16.781C16.281 17.2811 16 17.9594 16 18.6667C16 19.3739 16.281 20.0522 16.781 20.5523C17.2811 21.0524 17.9594 21.3333 18.6667 21.3333Z" stroke="#F3D697" stroke-width="2" stroke-linecap="round" stroke-linejoin="round"/>
<path d="M22.6667 12V9.33334C22.6667 8.62609 22.3857 7.94782 21.8856 7.44772C21.3855 6.94762 20.7072 6.66667 20 6.66667H6.66667C5.95942 6.66667 5.28115 6.94762 4.78105 7.44772C4.28095 7.94782 4 8.62609 4 9.33334V17.3333C4 18.0406 4.28095 18.7189 4.78105 19.219C5.28115 19.7191 5.95942 20 6.66667 20H9.33333" stroke="#F3D697" stroke-width="2" stroke-linecap="round" stroke-linejoin="round"/>
</svg>
