<svg width="1553" height="342" viewBox="0 0 1553 342" fill="none" xmlns="http://www.w3.org/2000/svg">
<path d="M869.365 338.466H1367H1553" stroke="url(#paint0_linear_403_9178)" stroke-miterlimit="10"/>
<path d="M795.672 164.475H757.602V338.466H795.672V164.475Z" stroke="#324541" stroke-miterlimit="10"/>
<path d="M795.672 1.35931H757.602V20.3895H795.672V1.35931Z" stroke="#324541" stroke-miterlimit="10"/>
<path d="M763.855 338.466V279.744" stroke="#324541" stroke-miterlimit="10"/>
<path d="M769.838 338.466V322.154" stroke="#324541" stroke-miterlimit="10"/>
<path d="M769.838 309.105V297.143" stroke="#324541" stroke-miterlimit="10"/>
<path d="M791.32 164.475V205.526" stroke="#324541" stroke-miterlimit="10"/>
<path d="M785.609 164.475V182.418" stroke="#324541" stroke-miterlimit="10"/>
<path d="M785.609 190.846V219.119" stroke="#324541" stroke-miterlimit="10"/>
<path d="M763.855 1.35931V7.34024" stroke="#324541" stroke-miterlimit="10"/>
<path d="M769.838 1.35931V10.8744" stroke="#324541" stroke-miterlimit="10"/>
<path d="M791.32 20.3895V7.34024" stroke="#324541" stroke-miterlimit="10"/>
<path d="M785.609 20.3895V13.8649" stroke="#324541" stroke-miterlimit="10"/>
<path d="M758 338H796V338H758V338Z" stroke="#5E857A" stroke-miterlimit="10"/>
<path d="M695.6 338.466H188.448H0" stroke="url(#paint1_linear_403_9178)" stroke-miterlimit="10"/>
<path d="M920.759 20.3895H632.512V164.475H920.759V20.3895Z" stroke="#5E857A" stroke-miterlimit="10"/>
<g clip-path="url(#clip0_403_9178)">
<path d="M633 28.3597H679.189" stroke="#5E857A" stroke-miterlimit="10"/>
<path d="M633 152.64H653.649" stroke="#5E857A" stroke-miterlimit="10"/>
<path d="M633 122.726H653.649" stroke="#5E857A" stroke-miterlimit="10"/>
<path d="M633 130.884H639.249" stroke="#5E857A" stroke-miterlimit="10"/>
<path d="M646.041 136.323H666.147" stroke="#5E857A" stroke-miterlimit="10"/>
<path d="M633 143.938H680.547" stroke="#5E857A" stroke-miterlimit="10"/>
<path d="M685.709 28.3597H696.305" stroke="#5E857A" stroke-miterlimit="10"/>
<path d="M633 35.7024H651.475" stroke="#5E857A" stroke-miterlimit="10"/>
<path d="M921 128.437H889.211" stroke="#5E857A" stroke-miterlimit="10"/>
<path d="M921 137.683H913.393" stroke="#5E857A" stroke-miterlimit="10"/>
<path d="M921.001 52.0193H893.016" stroke="#5E857A" stroke-miterlimit="10"/>
<path d="M920.999 42.2291H911.762" stroke="#5E857A" stroke-miterlimit="10"/>
<path d="M921.001 61.8094H902.525" stroke="#5E857A" stroke-miterlimit="10"/>
<path d="M895.189 61.8094H882.963" stroke="#5E857A" stroke-miterlimit="10"/>
<path d="M921.001 68.3362H915.023" stroke="#5E857A" stroke-miterlimit="10"/>
</g>
<path d="M825.584 268.326L808.453 317.804L801.382 338.466H795.672V331.126L801.926 317.804L825.584 268.326Z" stroke="#5E857A" stroke-miterlimit="10"/>
<path d="M825.583 308.289L820.688 317.804L810.627 338.466H801.381L817.697 317.804L825.583 308.289Z" stroke="#5E857A" stroke-miterlimit="10"/>
<path d="M847.338 338.466H838.908V327.591L847.338 338.466Z" stroke="#5E857A" stroke-miterlimit="10"/>
<path d="M869.364 338.466H847.338L852.505 317.804L860.663 286.541V328.679L864.198 317.804L866.645 310.736L867.189 317.804L869.364 338.466Z" stroke="#5E857A" stroke-miterlimit="10"/>
<path d="M838.908 338.466H810.627" stroke="#5E857A" stroke-miterlimit="10"/>
<path d="M700.224 338.466H695.601L692.61 317.804L691.25 308.017L693.969 317.804L700.224 338.466Z" stroke="#5E857A" stroke-miterlimit="10"/>
<path d="M757.6 326.776V338.466H744.547L713.547 317.804L709.74 315.358L715.179 317.804L749.17 333.572L741.284 317.804H742.1L749.17 322.97L747.539 317.804L741.012 297.143L752.433 317.804L757.6 326.776Z" stroke="#5E857A" stroke-miterlimit="10"/>
<path d="M741.286 317.804L741.014 317.261L742.101 317.804" stroke="#5E857A" stroke-miterlimit="10"/>
<path d="M744.547 338.466H700.223" stroke="#5E857A" stroke-miterlimit="10"/>
<path d="M745.384 100.168H739.84V68.2H731.848L708.016 100.888V106.072H731.848V115H739.84V106.072H745.384V100.168ZM715.936 100.168L731.848 78.496V100.168H715.936ZM771.589 115.576C783.613 115.576 791.461 105.496 791.461 91.6C791.461 77.704 783.613 67.624 771.589 67.624C759.565 67.624 751.933 77.704 751.933 91.6C751.933 105.496 759.565 115.576 771.589 115.576ZM771.589 107.8C764.965 107.8 759.925 101.896 759.925 91.6C759.925 81.304 764.965 75.616 771.589 75.616C778.213 75.616 783.181 81.304 783.181 91.6C783.181 101.896 778.213 107.8 771.589 107.8ZM835.294 100.168H829.75V68.2H821.758L797.926 100.888V106.072H821.758V115H829.75V106.072H835.294V100.168ZM805.846 100.168L821.758 78.496V100.168H805.846Z" fill="white"/>
<defs>
<linearGradient id="paint0_linear_403_9178" x1="-10.5001" y1="337.996" x2="1553" y2="338" gradientUnits="userSpaceOnUse">
<stop stop-color="#5E857A" stop-opacity="0"/>
<stop offset="0.348958" stop-color="#5E857A"/>
<stop offset="0.640625" stop-color="#5E857A"/>
<stop offset="1" stop-color="#5E857A" stop-opacity="0"/>
</linearGradient>
<linearGradient id="paint1_linear_403_9178" x1="-1.83819e-05" y1="338.013" x2="1560.5" y2="338.009" gradientUnits="userSpaceOnUse">
<stop stop-color="#5E857A" stop-opacity="0"/>
<stop offset="0.348958" stop-color="#5E857A"/>
<stop offset="0.640625" stop-color="#5E857A"/>
<stop offset="1" stop-color="#5E857A" stop-opacity="0"/>
</linearGradient>
<clipPath id="clip0_403_9178">
<rect width="288" height="127" fill="white" transform="translate(633 27)"/>
</clipPath>
</defs>
</svg>
