<svg width="32" height="32" viewBox="0 0 32 32" fill="none" xmlns="http://www.w3.org/2000/svg">
<g clip-path="url(#clip0_7_134)">
<path d="M32 0H0V32H32V0Z" fill="#324541"/>
<path d="M17.386 18.012H14.6138V15.374C14.6138 15.0064 14.7598 14.6538 15.0198 14.3939C15.2797 14.134 15.6323 13.9879 15.9999 13.9879C16.3675 13.9879 16.7201 14.134 16.98 14.3939C17.24 14.6538 17.386 15.0064 17.386 15.374V18.012Z" fill="#F3D697"/>
<path d="M15.9998 6.4447C10.712 6.4447 6.42529 10.7228 6.42529 16C6.42529 21.2771 10.7123 25.5552 15.9998 25.5552C21.2873 25.5552 25.5742 21.2771 25.5742 16C25.5742 10.7228 21.2877 6.4447 15.9998 6.4447ZM15.9998 24.8C12.2432 24.8 9.19777 20.8602 9.19777 16C9.19777 11.1398 12.2432 7.19996 15.9998 7.19996C19.7564 7.19996 22.8017 11.1398 22.8017 16C22.8017 20.8602 19.7564 24.8 15.9998 24.8Z" fill="#ECECEC"/>
</g>
<defs>
<clipPath id="clip0_7_134">
<rect width="32" height="32" rx="16" fill="white"/>
</clipPath>
</defs>
</svg>
