<svg width="32" height="32" viewBox="0 0 32 32" fill="none" xmlns="http://www.w3.org/2000/svg">
<path d="M4 27.9999H9.33333L26.6667 10.6666C27.3506 9.95461 27.7281 9.00286 27.7181 8.01566C27.7082 7.02846 27.3116 6.0845 26.6135 5.38641C25.9154 4.68832 24.9715 4.29174 23.9843 4.28181C22.9971 4.27187 22.0453 4.64937 21.3333 5.33328L4 22.6666V27.9999Z" stroke="#F3D697" stroke-width="2" stroke-linecap="round" stroke-linejoin="round"/>
<path d="M19.3335 7.33337L24.6668 12.6667" stroke="#F3D697" stroke-width="2" stroke-linecap="round" stroke-linejoin="round"/>
<path d="M16 10.6667L9.33333 4L4 9.33333L10.6667 16" stroke="#F3D697" stroke-width="2" stroke-linecap="round" stroke-linejoin="round"/>
<path d="M9.3335 10.6666L7.3335 12.6666" stroke="#F3D697" stroke-width="2" stroke-linecap="round" stroke-linejoin="round"/>
<path d="M21.3333 16L28 22.6667L22.6667 28L16 21.3333" stroke="#F3D697" stroke-width="2" stroke-linecap="round" stroke-linejoin="round"/>
<path d="M21.3335 22.6666L19.3335 24.6666" stroke="#F3D697" stroke-width="2" stroke-linecap="round" stroke-linejoin="round"/>
</svg>
