<svg width="16" height="16" viewBox="0 0 16 16" fill="none" xmlns="http://www.w3.org/2000/svg">
<path d="M13.334 2.66663H2.66732C1.93398 2.66663 1.34065 3.26663 1.34065 3.99996L1.33398 12C1.33398 12.7333 1.93398 13.3333 2.66732 13.3333H13.334C14.0673 13.3333 14.6673 12.7333 14.6673 12V3.99996C14.6673 3.26663 14.0673 2.66663 13.334 2.66663ZM13.0673 5.49996L8.35398 8.44663C8.14065 8.57996 7.86065 8.57996 7.64732 8.44663L2.93398 5.49996C2.76732 5.39329 2.66732 5.21329 2.66732 5.01996C2.66732 4.57329 3.15398 4.30663 3.53398 4.53996L8.00065 7.33329L12.4673 4.53996C12.8473 4.30663 13.334 4.57329 13.334 5.01996C13.334 5.21329 13.234 5.39329 13.0673 5.49996Z" fill="#EDEDED"/>
</svg>
