<svg width="32" height="32" viewBox="0 0 32 32" fill="none" xmlns="http://www.w3.org/2000/svg">
<g clip-path="url(#clip0_404_9229)">
<path d="M19.2004 6.40039L21.6537 8.85372L18.5711 11.9151L20.0857 13.4297L23.1471 10.3471L25.6004 12.8004V6.40039H19.2004ZM6.40039 12.8004L8.85372 10.3471L11.9151 13.4297L13.4297 11.9151L10.3471 8.85372L12.8004 6.40039H6.40039V12.8004ZM12.8004 25.6004L10.3471 23.1471L13.4297 20.0857L11.9151 18.5711L8.85372 21.6537L6.40039 19.2004V25.6004H12.8004ZM25.6004 19.2004L23.1471 21.6537L20.0857 18.5711L18.5711 20.0857L21.6537 23.1471L19.2004 25.6004H25.6004V19.2004Z" fill="#FBD394"/>
</g>
<defs>
<clipPath id="clip0_404_9229">
<rect width="32" height="32" fill="white"/>
</clipPath>
</defs>
</svg>
