<svg width="16" height="16" viewBox="0 0 16 16" fill="none" xmlns="http://www.w3.org/2000/svg">
<path d="M12.82 10.1745L11.1267 9.98115C10.72 9.93448 10.32 10.0745 10.0334 10.3611L8.80669 11.5878C6.92003 10.6278 5.37336 9.08781 4.41336 7.19448L5.64669 5.96115C5.93336 5.67448 6.07336 5.27448 6.02669 4.86781L5.83336 3.18781C5.75336 2.51448 5.18669 2.00781 4.50669 2.00781H3.35336C2.60003 2.00781 1.97336 2.63448 2.02003 3.38781C2.37336 9.08115 6.92669 13.6278 12.6134 13.9811C13.3667 14.0278 13.9934 13.4011 13.9934 12.6478V11.4945C14 10.8211 13.4934 10.2545 12.82 10.1745V10.1745Z" fill="#EDEDED"/>
</svg>
