<svg width="24" height="24" viewBox="0 0 24 24" fill="none" xmlns="http://www.w3.org/2000/svg">
<path d="M7.81828 21.0103C16.3093 21.0103 20.9527 13.9757 20.9527 7.87588C20.9527 7.67609 20.9485 7.47712 20.9396 7.27926C21.8408 6.6276 22.6242 5.81439 23.2423 4.88878C22.4152 5.25657 21.5249 5.50384 20.5913 5.6157C21.5443 5.04399 22.2761 4.13997 22.6212 3.0623C21.7293 3.59109 20.7414 3.97526 19.6899 4.18276C18.8476 3.28549 17.6481 2.72437 16.3202 2.72437C13.771 2.72437 11.7036 4.79163 11.7036 7.33994C11.7036 7.70237 11.7442 8.05462 11.8233 8.39256C7.9867 8.19951 4.58446 6.36272 2.30791 3.56949C1.91163 4.25156 1.68294 5.04412 1.68294 5.8898C1.68294 7.49116 2.49793 8.90525 3.73714 9.73221C2.9798 9.70896 2.26842 9.50105 1.64648 9.15499C1.64579 9.17439 1.64579 9.19324 1.64579 9.21388C1.64579 11.4496 3.23697 13.3162 5.3495 13.7392C4.96148 13.8447 4.55323 13.9016 4.13218 13.9016C3.83524 13.9016 3.54574 13.8724 3.26449 13.8183C3.85217 15.6525 5.55645 16.9872 7.57693 17.0246C5.9969 18.263 4.00655 19.0006 1.84338 19.0006C1.47132 19.0006 1.10352 18.9793 0.742188 18.9367C2.78524 20.2462 5.21122 21.0104 7.81842 21.0104" fill="#EDEDED"/>
</svg>
