<svg width="24" height="24" viewBox="0 0 24 24" fill="none" xmlns="http://www.w3.org/2000/svg">
<path d="M7.81926 21.01C16.3103 21.01 20.9536 13.9755 20.9536 7.87564C20.9536 7.67584 20.9495 7.47688 20.9406 7.27901C21.8418 6.62735 22.6252 5.81415 23.2433 4.88853C22.4162 5.25633 21.5259 5.50359 20.5923 5.61546C21.5453 5.04374 22.277 4.13972 22.6221 3.06206C21.7302 3.59085 20.7424 3.97502 19.6909 4.18252C18.8485 3.28524 17.6491 2.72412 16.3211 2.72412C13.772 2.72412 11.7046 4.79139 11.7046 7.33969C11.7046 7.70213 11.7452 8.05438 11.8243 8.39232C7.98768 8.19927 4.58544 6.36248 2.30889 3.56925C1.91261 4.25132 1.68392 5.04388 1.68392 5.88955C1.68392 7.49091 2.49891 8.905 3.73811 9.73197C2.98078 9.70871 2.2694 9.5008 1.64746 9.15474C1.64677 9.17414 1.64677 9.193 1.64677 9.21364C1.64677 11.4493 3.23795 13.316 5.35048 13.7389C4.96246 13.8445 4.5542 13.9013 4.13316 13.9013C3.83622 13.9013 3.54671 13.8721 3.26547 13.8181C3.85314 15.6522 5.55743 16.9869 7.57791 17.0244C5.99788 18.2627 4.00753 19.0004 1.84436 19.0004C1.47229 19.0004 1.1045 18.9791 0.743164 18.9364C2.78621 20.2459 5.2122 21.0102 7.81939 21.0102" fill="#FBD394"/>
</svg>
