<svg width="32" height="32" viewBox="0 0 32 32" fill="none" xmlns="http://www.w3.org/2000/svg">
<path d="M11.9998 6.66666H25.3332L27.9998 9.33332L25.3332 12H11.9998C11.6462 12 11.3071 11.8595 11.057 11.6095C10.807 11.3594 10.6665 11.0203 10.6665 10.6667V7.99999C10.6665 7.64637 10.807 7.30723 11.057 7.05718C11.3071 6.80713 11.6462 6.66666 11.9998 6.66666" stroke="#FBD394" stroke-width="2" stroke-linecap="round" stroke-linejoin="round"/>
<path d="M17.3335 17.3333H8.00016L5.3335 20L8.00016 22.6667H17.3335C17.6871 22.6667 18.0263 22.5262 18.2763 22.2762C18.5264 22.0261 18.6668 21.687 18.6668 21.3333V18.6667C18.6668 18.3131 18.5264 17.9739 18.2763 17.7239C18.0263 17.4738 17.6871 17.3333 17.3335 17.3333Z" stroke="#FBD394" stroke-width="2" stroke-linecap="round" stroke-linejoin="round"/>
<path d="M16 29.3333V22.6667" stroke="#FBD394" stroke-width="2" stroke-linecap="round" stroke-linejoin="round"/>
<path d="M16 17.3333V12" stroke="#FBD394" stroke-width="2" stroke-linecap="round" stroke-linejoin="round"/>
<path d="M16 6.66667V4" stroke="#FBD394" stroke-width="2" stroke-linecap="round" stroke-linejoin="round"/>
</svg>
