<svg width="24" height="24" viewBox="0 0 24 24" fill="none" xmlns="http://www.w3.org/2000/svg">
<g clip-path="url(#clip0_509_9192)">
<path d="M19.5707 10.5858L11.4389 18.7175C9.87622 20.2802 7.34478 20.2802 5.78207 18.7175C4.21936 17.1548 4.21936 14.6234 5.78207 13.0607L14.6209 4.22185C15.5967 3.24604 17.1806 3.24604 18.1564 4.22185C19.1322 5.19766 19.1322 6.78158 18.1564 7.75738L10.7318 15.182C10.3429 15.5709 9.70651 15.5709 9.3176 15.182C8.9287 14.7931 8.9287 14.1567 9.3176 13.7678L16.0351 7.05028L14.9745 5.98962L8.25694 12.7071C7.28114 13.6829 7.28114 15.2669 8.25694 16.2427C9.23275 17.2185 10.8167 17.2185 11.7925 16.2427L19.2171 8.81804C20.7798 7.25534 20.7798 4.7239 19.2171 3.16119C17.6544 1.59848 15.123 1.59848 13.5602 3.16119L4.72141 12C2.57181 14.1496 2.57181 17.6286 4.72141 19.7782C6.87101 21.9278 10.35 21.9278 12.4996 19.7782L20.6313 11.6465L19.5707 10.5858Z" fill="#5E857A"/>
</g>
<defs>
<clipPath id="clip0_509_9192">
<rect width="24" height="24" fill="white"/>
</clipPath>
</defs>
</svg>
