<svg width="219" height="78" viewBox="0 0 219 78" fill="none" xmlns="http://www.w3.org/2000/svg">
<path d="M86.9695 30.4528H79.5488V23.5092C79.5488 21.5002 81.1979 19.8436 83.2771 19.8436C85.3205 19.8436 87.0054 21.465 87.0054 23.5092V30.4528H86.9695Z" fill="#FBD394"/>
<path d="M83.2764 0C69.1161 0 57.6445 11.2788 57.6445 25.1658C57.6445 39.0529 69.1161 50.3317 83.2764 50.3317C97.4366 50.3317 108.908 39.0529 108.908 25.1658C108.908 11.2788 97.4366 0 83.2764 0ZM83.2764 48.3226C73.2029 48.3226 65.0652 37.9602 65.0652 25.1658C65.0652 12.3714 73.2029 2.00904 83.2764 2.00904C93.3499 2.00904 101.488 12.3714 101.488 25.1658C101.488 37.9602 93.3499 48.3226 83.2764 48.3226Z" fill="#EDEDED"/>
<path d="M46.46 36.7266C42.5883 43.7759 35.2035 48.3226 26.3488 48.3226C15.415 48.3226 7.42069 38.7709 7.42069 25.1658C7.42069 12.2305 15.7018 2.11478 26.3488 2.11478C35.1676 2.11478 42.5525 6.55581 46.4241 13.6051H48.36C44.1298 5.49842 35.5261 0 25.6319 0C11.4716 0 0 11.2788 0 25.1658C0 39.0529 11.4716 50.3317 25.6319 50.3317C35.5261 50.3317 44.1298 44.798 48.3958 36.7266H46.46V36.7266Z" fill="#EDEDED"/>
<path d="M127.155 50.0497V40.3922C127.155 39.4053 127.98 38.5946 128.983 38.5946H140.634C147.159 38.5946 152.572 43.5291 153.827 50.0497H161.176C159.24 42.2603 151.747 38.7356 147.266 37.6078C156.336 35.0348 161.498 26.7519 161.498 19.4207C161.498 10.9616 154.4 0.246704 140.67 0.246704H119.734V50.0497H127.155ZM127.155 34.929V3.94756C127.155 2.96067 127.98 2.15 128.983 2.15H140.598C148.019 2.15 154.077 9.90418 154.077 19.4559C154.077 29.0077 148.055 36.7618 140.598 36.7618H128.983C127.98 36.7266 127.155 35.9159 127.155 34.929Z" fill="#EDEDED"/>
<path d="M172.11 50.0497C176.341 40.639 185.84 36.9381 192.974 36.7971C193.225 36.7619 205.557 36.7971 205.557 36.7971L211.006 50.0497H219.001L198.567 0.281982H190.572L170.139 50.0497H172.11ZM193.799 34.9291C186.45 34.9291 179.71 37.8545 175.408 42.1193L191.074 4.12383C191.289 3.63038 191.971 3.63038 192.186 4.12383L204.123 33.202C204.482 34.0479 203.836 34.9643 202.904 34.9643H193.799V34.9291Z" fill="#EDEDED"/>
<path d="M78.1866 77.8589V73.1359H72.5942V77.8589H71.0527V67.708H72.5942V71.9023H78.1866V67.708H79.7281V77.8589H78.1866Z" fill="#FBD394"/>
<path d="M92.8123 78C89.6934 78 87.3633 75.7442 87.3633 72.7483C87.3633 69.8228 89.7651 67.4966 92.8123 67.4966C95.8594 67.4966 98.2613 69.7876 98.2613 72.7483C98.2613 75.7442 95.9311 78 92.8123 78ZM92.8481 68.8712C90.6972 68.8712 89.0123 70.5983 89.0123 72.7835C89.0123 74.9688 90.6972 76.6959 92.8481 76.6959C94.9991 76.6959 96.6481 74.9688 96.6481 72.7835C96.6481 70.563 94.9632 68.8712 92.8481 68.8712Z" fill="#FBD394"/>
<path d="M115.147 77.859V70.0343L114.789 70.6687C114.789 70.6687 114.466 71.2679 113.785 72.2196L111.312 75.7089L108.802 72.1843C108.157 71.2679 107.798 70.6687 107.798 70.6687L107.44 70.0695V77.8942H105.898V67.7433H107.297L108.73 69.7171C109.483 70.7392 111.168 73.1007 111.168 73.1007L111.312 73.3122C111.312 73.3122 113.14 70.7745 113.893 69.7523L115.327 67.7785H116.725V77.9295H115.147V77.859Z" fill="#FBD394"/>
<path d="M126.045 73.1359V76.5901H132.677V77.8589H124.504V67.708H132.426V68.9416H126.045V71.8671H132.068V73.1359H126.045Z" fill="#FBD394"/>
<path d="M126.045 76.5901V73.1359H132.068V71.8671H126.045V68.9416H132.426V67.708H124.504V77.8589H132.677V76.5901H126.045Z" fill="#FBD394"/>
<path d="M143.826 78C141.64 78 140.492 77.2598 139.775 76.6254L140.349 75.5327C141.03 76.0614 142.141 76.6606 143.826 76.6606C145.045 76.6606 146.336 76.0614 146.336 74.9688C146.336 73.8409 145.045 73.5237 144.006 73.277C141.962 72.8188 140.17 72.2196 140.17 70.281C140.17 68.3777 142.07 67.4966 143.862 67.4966C145.189 67.4966 146.336 67.8138 147.411 68.5187L146.838 69.6466C145.906 69.1179 144.938 68.8359 143.862 68.8359C143.145 68.8359 141.747 69.1532 141.747 70.281C141.747 71.3032 142.966 71.6204 144.149 71.9024C146.156 72.3606 148.021 73.0655 148.021 75.004C147.949 77.0836 145.87 78 143.826 78Z" fill="#FBD394"/>
</svg>
