<svg width="32" height="32" viewBox="0 0 32 32" fill="none" xmlns="http://www.w3.org/2000/svg">
<path d="M16.0001 4L26.4001 10.8565V21.1435L16.0001 28L5.6001 21.1435V10.855L16.0001 4Z" stroke="#F3D697" stroke-width="2" stroke-linecap="round" stroke-linejoin="round"/>
<path d="M15.9998 21.2C16.6827 21.2 17.3589 21.0655 17.9898 20.8042C18.6207 20.5429 19.1939 20.1599 19.6768 19.677C20.1596 19.1941 20.5427 18.6209 20.804 17.99C21.0653 17.3591 21.1998 16.6829 21.1998 16C21.1998 15.3172 21.0653 14.641 20.804 14.0101C20.5427 13.3792 20.1596 12.806 19.6768 12.3231C19.1939 11.8402 18.6207 11.4572 17.9898 11.1959C17.3589 10.9346 16.6827 10.8 15.9998 10.8C14.6207 10.8 13.298 11.3479 12.3228 12.3231C11.3477 13.2983 10.7998 14.6209 10.7998 16C10.7998 17.3792 11.3477 18.7018 12.3228 19.677C13.298 20.6522 14.6207 21.2 15.9998 21.2V21.2Z" stroke="#F3D697" stroke-width="2" stroke-linecap="round" stroke-linejoin="round"/>
</svg>
