<svg width="24" height="24" viewBox="0 0 24 24" fill="none" xmlns="http://www.w3.org/2000/svg">
<path d="M3.46687 1.21875C1.817 1.21875 0.738281 2.30214 0.738281 3.7261C0.738281 5.11862 1.78487 6.23291 3.40356 6.23291H3.43487C5.11702 6.23291 6.16388 5.11862 6.16388 3.7261C6.13243 2.30214 5.11702 1.21875 3.46687 1.21875V1.21875Z" fill="#FBD394"/>
<path d="M1.02344 8.21436H5.84671V22.7254H1.02344V8.21436Z" fill="#FBD394"/>
<path d="M17.6858 7.87354C15.0838 7.87354 13.339 10.3185 13.339 10.3185V8.21411H8.51562V22.7251H13.3388V14.6216C13.3388 14.1878 13.3702 13.7547 13.4976 13.4444C13.8463 12.5782 14.6398 11.6807 15.9723 11.6807C17.7176 11.6807 18.4157 13.0114 18.4157 14.9622V22.7251H23.2385V14.4048C23.2385 9.94762 20.8589 7.87354 17.6858 7.87354V7.87354Z" fill="#FBD394"/>
</svg>
