<svg width="24" height="24" viewBox="0 0 24 24" fill="none" xmlns="http://www.w3.org/2000/svg">
<path d="M3.46687 1.21887C1.817 1.21887 0.738281 2.30226 0.738281 3.72623C0.738281 5.11874 1.78487 6.23303 3.40356 6.23303H3.43487C5.11702 6.23303 6.16388 5.11874 6.16388 3.72623C6.13243 2.30226 5.11702 1.21887 3.46687 1.21887V1.21887Z" fill="#EDEDED"/>
<path d="M1.02344 8.21423H5.84671V22.7252H1.02344V8.21423Z" fill="#EDEDED"/>
<path d="M17.6858 7.87341C15.0838 7.87341 13.339 10.3184 13.339 10.3184V8.21399H8.51562V22.725H13.3388V14.6215C13.3388 14.1877 13.3702 13.7545 13.4976 13.4443C13.8463 12.578 14.6398 11.6806 15.9723 11.6806C17.7176 11.6806 18.4157 13.0113 18.4157 14.9621V22.725H23.2385V14.4047C23.2385 9.9475 20.8589 7.87341 17.6858 7.87341V7.87341Z" fill="#EDEDED"/>
</svg>
