<svg width="240" height="40" viewBox="0 0 240 40" fill="none" xmlns="http://www.w3.org/2000/svg">
<g clip-path="url(#clip0_403_8844)">
<path d="M184.84 24.0337V20.2802H180.418V24.0337H179.199V15.9664H180.418V19.2998H184.84V15.9664H186.059V24.0337H184.84Z" fill="#FBD394"/>
<path d="M196.404 24.1457C193.938 24.1457 192.096 22.353 192.096 19.972C192.096 17.6471 193.995 15.7983 196.404 15.7983C198.814 15.7983 200.713 17.6191 200.713 19.972C200.713 22.381 198.87 24.1457 196.404 24.1457ZM196.433 16.8908C194.732 16.8908 193.4 18.2633 193.4 20C193.4 21.7367 194.732 23.1093 196.433 23.1093C198.133 23.1093 199.437 21.7367 199.437 20C199.437 18.2633 198.105 16.8908 196.433 16.8908Z" fill="#FBD394"/>
<path d="M214.063 24.0337V17.8152L213.78 18.3194C213.78 18.3194 213.525 18.7956 212.986 19.5519L211.03 22.325L209.046 19.5239C208.536 18.7956 208.252 18.3194 208.252 18.3194L207.969 17.8432V24.0617H206.75V15.9664H207.855L208.989 17.5351C209.585 18.3474 210.917 20.2241 210.917 20.2241L211.03 20.3922C211.03 20.3922 212.476 18.3754 213.071 17.5631L214.205 15.9944H215.31V24.0617H214.063V24.0337Z" fill="#FBD394"/>
<path d="M222.682 20.2802V23.0253H227.926V24.0337H221.463V15.9664H227.727V16.9468H222.682V19.2998H227.444V20.2802H222.682Z" fill="#FBD394"/>
<path d="M222.682 23.0253V20.2802H227.444V19.2998H222.682V16.9468H227.727V15.9664H221.463V24.0337H227.926V23.0253H222.682Z" fill="#FBD394"/>
<path d="M236.74 24.1457C235.011 24.1457 234.104 23.5574 233.537 23.0532L233.991 22.1849C234.529 22.6051 235.408 23.0813 236.74 23.0813C237.704 23.0813 238.724 22.6051 238.724 21.7367C238.724 20.8404 237.704 20.5883 236.882 20.3922C235.266 20.028 233.849 19.5518 233.849 18.0112C233.849 16.4986 235.351 15.7983 236.768 15.7983C237.817 15.7983 238.724 16.0504 239.575 16.6107L239.121 17.507C238.384 17.0869 237.619 16.8628 236.768 16.8628C236.202 16.8628 235.096 17.1149 235.096 18.0112C235.096 18.8236 236.06 19.0757 236.995 19.2997C238.583 19.6639 240.057 20.2241 240.057 21.7647C240 23.4174 238.356 24.1457 236.74 24.1457Z" fill="#FBD394"/>
<path d="M68.7659 24.2016H62.8984V18.6834C62.8984 17.0868 64.2023 15.7703 65.8464 15.7703C67.462 15.7703 68.7943 17.0588 68.7943 18.6834V24.2016H68.7659Z" fill="#FBD394"/>
<path d="M65.847 0C54.6506 0 45.5801 8.96358 45.5801 20C45.5801 31.0364 54.6506 40 65.847 40C77.0434 40 86.1139 31.0364 86.1139 20C86.1139 8.96358 77.0434 0 65.847 0ZM65.847 38.4034C57.882 38.4034 51.4476 30.1681 51.4476 20C51.4476 9.83193 57.882 1.59664 65.847 1.59664C73.812 1.59664 80.2464 9.83193 80.2464 20C80.2464 30.1681 73.812 38.4034 65.847 38.4034Z" fill="#EDEDED"/>
<path d="M36.7356 29.1877C33.6743 34.7899 27.8351 38.4034 20.8338 38.4034C12.1885 38.4034 5.86749 30.8123 5.86749 20C5.86749 9.71989 12.4153 1.68067 20.8338 1.68067C27.8068 1.68067 33.6459 5.21008 36.7072 10.8123H38.2379C34.8931 4.36975 28.0902 0 20.2669 0C9.07051 0 0 8.96358 0 20C0 31.0364 9.07051 40 20.2669 40C28.0902 40 34.8931 35.6022 38.2662 29.1877H36.7356V29.1877Z" fill="#EDEDED"/>
<path d="M100.541 39.7759V32.1008C100.541 31.3165 101.193 30.6722 101.987 30.6722H111.199C116.358 30.6722 120.638 34.5938 121.63 39.7759H127.441C125.91 33.5854 119.986 30.7843 116.443 29.8879C123.614 27.8431 127.696 21.2605 127.696 15.4341C127.696 8.71145 122.084 0.196045 111.228 0.196045H94.6738V39.7759H100.541ZM100.541 27.7591V3.13722C100.541 2.35291 101.193 1.70865 101.987 1.70865H111.171C117.038 1.70865 121.829 7.87111 121.829 15.4622C121.829 23.0532 117.067 29.2157 111.171 29.2157H101.987C101.193 29.1876 100.541 28.5434 100.541 27.7591Z" fill="#EDEDED"/>
<path d="M136.086 39.7759C139.431 32.2969 146.943 29.3558 152.583 29.2437C152.782 29.2157 162.533 29.2437 162.533 29.2437L166.841 39.7759H173.162L157.005 0.224121H150.684L134.527 39.7759H136.086ZM153.235 27.7591C147.424 27.7591 142.096 30.0841 138.694 33.4734L151.081 3.27734C151.251 2.88519 151.79 2.88519 151.96 3.27734L161.399 26.3866C161.682 27.0589 161.172 27.7871 160.435 27.7871H153.235V27.7591Z" fill="#EDEDED"/>
</g>
<defs>
<clipPath id="clip0_403_8844">
<rect width="240" height="40" fill="white"/>
</clipPath>
</defs>
</svg>
