<svg width="32" height="32" viewBox="0 0 32 32" fill="none" xmlns="http://www.w3.org/2000/svg">
<g clip-path="url(#clip0_404_9205)">
<path d="M25.6004 15.9996C25.6004 14.6796 24.5204 13.5996 23.2004 13.5996V9.99961C23.2004 8.67961 22.1204 7.59961 20.8004 7.59961H11.2004C9.88039 7.59961 8.80039 8.67961 8.80039 9.99961V13.5996C7.48039 13.5996 6.40039 14.6796 6.40039 15.9996V21.9996H7.99639L8.80039 24.3996H10.0004L10.8044 21.9996H21.2084L22.0004 24.3996H23.2004L24.0044 21.9996H25.6004V15.9996ZM20.8004 13.5996H17.2004V9.99961H20.8004V13.5996ZM11.2004 9.99961H14.8004V13.5996H11.2004V9.99961ZM8.80039 15.9996H23.2004V19.5996H8.80039V15.9996Z" fill="#FBD394"/>
</g>
<defs>
<clipPath id="clip0_404_9205">
<rect width="32" height="32" fill="white"/>
</clipPath>
</defs>
</svg>
