<svg width="32" height="32" viewBox="0 0 32 32" fill="none" xmlns="http://www.w3.org/2000/svg">
<path d="M20.8084 20.8H11.4188C8.64691 20.8 6.41211 18.333 6.41211 15.2733V13.533H25.8151V15.2733C25.8151 18.333 23.5802 20.8 20.8084 20.8Z" fill="#FBD394"/>
<path d="M26.4558 12.8638H5.54572C5.12994 12.8638 4.80078 12.4813 4.80078 12.0223C4.80078 11.5634 5.12994 11.2 5.54572 11.2H26.4558C26.8716 11.2 27.2008 11.5634 27.2008 12.0223C27.2008 12.4813 26.8716 12.8638 26.4558 12.8638Z" fill="#FBD394"/>
<circle cx="8.00039" cy="20.8002" r="1.6" fill="#FBD394"/>
<circle cx="24.0004" cy="20.8002" r="1.6" fill="#FBD394"/>
<path d="M8.40234 10.1677C8.40234 8.97032 9.42547 8 10.6881 8C11.2976 8 11.8636 8.2271 12.2772 8.59871" stroke="#FBD394" stroke-miterlimit="10" stroke-linecap="round" stroke-linejoin="round"/>
<path d="M6.94336 10.168H9.8386" stroke="#FBD394" stroke-miterlimit="10" stroke-linecap="round" stroke-linejoin="round"/>
</svg>
