<svg width="20" height="20" viewBox="0 0 20 20" fill="none" xmlns="http://www.w3.org/2000/svg">
<g clip-path="url(#clip0_410_9199)">
<path d="M12 4L13.5333 5.53333L11.6067 7.44667L12.5533 8.39333L14.4667 6.46667L16 8V4H12ZM4 8L5.53333 6.46667L7.44667 8.39333L8.39333 7.44667L6.46667 5.53333L8 4H4V8ZM8 16L6.46667 14.4667L8.39333 12.5533L7.44667 11.6067L5.53333 13.5333L4 12V16H8ZM16 12L14.4667 13.5333L12.5533 11.6067L11.6067 12.5533L13.5333 14.4667L12 16H16V12Z" fill="#FBD394"/>
</g>
<defs>
<clipPath id="clip0_410_9199">
<rect width="20" height="20" fill="white"/>
</clipPath>
</defs>
</svg>
