<svg width="20" height="20" viewBox="0 0 20 20" fill="none" xmlns="http://www.w3.org/2000/svg">
<g clip-path="url(#clip0_410_9191)">
<path d="M16 10C16 9.175 15.325 8.5 14.5 8.5V6.25C14.5 5.425 13.825 4.75 13 4.75H7C6.175 4.75 5.5 5.425 5.5 6.25V8.5C4.675 8.5 4 9.175 4 10V13.75H4.9975L5.5 15.25H6.25L6.7525 13.75H13.255L13.75 15.25H14.5L15.0025 13.75H16V10ZM13 8.5H10.75V6.25H13V8.5ZM7 6.25H9.25V8.5H7V6.25ZM5.5 10H14.5V12.25H5.5V10Z" fill="#FBD394"/>
</g>
<defs>
<clipPath id="clip0_410_9191">
<rect width="20" height="20" fill="white"/>
</clipPath>
</defs>
</svg>
